<?xml version="1.0" encoding="utf-8"?>
<!-- Generator: Adobe Illustrator 25.3.0, SVG Export Plug-In . SVG Version: 6.00 Build 0)  -->
<svg version="1.1" id="Capa_1" xmlns="http://www.w3.org/2000/svg" xmlns:xlink="http://www.w3.org/1999/xlink" x="0px" y="0px"
	 viewBox="0 0 500 500" style="enable-background:new 0 0 500 500;" xml:space="preserve">
<style type="text/css">
	.st0{fill:#22305D;}
</style>
<path class="st0" d="M467.93,224.02H34.6c-6.06,0-10.98-4.91-10.98-10.98V35c0-6.06,4.91-10.98,10.98-10.98h433.33
	c6.06,0,10.98,4.91,10.98,10.98v178.05C478.91,219.11,474,224.02,467.93,224.02z"/>
<path class="st0" d="M289.26,477.43H35.6c-6.06,0-10.98-4.91-10.98-10.98v-212.2c0-6.06,4.91-10.98,10.98-10.98h253.66
	c6.06,0,10.98,4.91,10.98,10.98v212.2C300.24,472.52,295.32,477.43,289.26,477.43z"/>
</svg>
